<?xml version="1.0" encoding="utf-8"?><svg xml:space="preserve" viewBox="0 0 100 100" y="0" x="0" xmlns="http://www.w3.org/2000/svg" id="Layer_1" version="1.1" width="27px" height="27px" xmlns:xlink="http://www.w3.org/1999/xlink" style="width:100%;height:100%;background-size:initial;background-repeat-y:initial;background-repeat-x:initial;background-position-y:initial;background-position-x:initial;background-origin:initial;background-color:initial;background-clip:initial;background-attachment:initial;animation-play-state:paused" ><g class="ldl-scale" style="transform-origin:50% 50%;transform:rotate(0deg) scale(1, 1);animation-play-state:paused" ><path fill="#323232" d="M38.259 69.122c-9.496 4.369-20.295 5.876-30.67 5.876v-6.241c0-.516-.129-.486.325-.581 1.105-.23 2.444-.038 3.581-.092a81.451 81.451 0 0 0 6.923-.623c7.809-1.041 16.358-3.068 22.724-7.968 2.288-1.761 4.328-4.05 5.129-6.881.463-1.637.335-3.327.458-5.007.169-2.305.578-4.618 1.296-6.817 2.385-7.304 7.739-12.704 15.184-14.754a27.756 27.756 0 0 1 3.678-.741c.486-.065 1.871.013 2.042-.372.124-.279-.002-.879-.003-1.182l-.005-1.952-.018-6.918 20.696 11.879 2.901 1.665L71.866 40.4l-2.892 1.68-.027-10.152c-3.533.298-7.059 1.38-9.8 3.699-2.084 1.764-3.561 4.121-4.461 6.684-.745 2.122-1.117 4.369-1.21 6.612-.073 1.772-.109 3.494-.56 5.227-.571 2.192-1.609 4.244-2.95 6.063-2.948 4-7.241 6.854-11.707 8.909-8.236 3.789 4.518-2.079 0 0z" id="XMLID_30_" style="fill:rgb(221, 221, 221);animation-play-state:paused" ></path>
<g style="animation-play-state:paused" ><path fill="#999998" d="M55.236 59.067a23.246 23.246 0 0 1-3.237 4.874c-.235.274-.911.797-1.033 1.135-.122.339.355.828.609 1.17.376.507.779.994 1.203 1.461a20.938 20.938 0 0 0 6.322 4.718 24 24 0 0 0 4.686 1.694c.915.229 1.842.408 2.775.544.372.054 2.158.016 2.369.269.176.21-.004 1.353-.004 1.614l-.008 3.185-.014 5.4L89.6 73.252l2.901-1.665L71.867 59.6l-2.892-1.68-.027 10.153c-5.95-.501-11.224-3.428-13.712-9.006-1.071 2.183 1.925 4.315 0 0z" id="XMLID_29_" style="fill:rgb(221, 221, 221);animation-play-state:paused" ></path>
<path fill="#999998" d="M38.259 30.878c-9.496-4.368-20.295-5.875-30.67-5.875v4.995c0 .301-.201 1.581 0 1.826.101.124 1.18.008 1.382.012a82.422 82.422 0 0 1 4.485.198c7.41.53 14.986 1.939 21.785 5.026 3.028 1.375 6.005 3.138 8.271 5.611a31.538 31.538 0 0 1 1.124-3.989c.226-.636.473-1.265.742-1.884.116-.267.37-.62.415-.912.227-.222.196-.387-.094-.494a20.172 20.172 0 0 0-.366-.289c-2.174-1.691-4.576-3.076-7.074-4.225-8.236-3.788 2.977 1.37 0 0z" id="XMLID_28_" style="fill:rgb(221, 221, 221);animation-play-state:paused" ></path></g>
<metadata xmlns:d="https://loading.io/stock/" style="animation-play-state:paused" ><d:name style="animation-play-state:paused" >switch</d:name>


<d:tags style="animation-play-state:paused" >shuffle,random,cross,change,right,next,patrol,switch,arrow</d:tags>


<d:license style="animation-play-state:paused" >by</d:license>


<d:slug style="animation-play-state:paused" >yccrvi</d:slug></metadata></g><!-- generated by https://loading.io/ --></svg>
